# xmcd CD database file
#
# Track frame offsets:
#	182
#	12857
#	27867
#	42397
#	57705
#	73237
#	85142
#	98565
#	117475
#	131227
#	146170
#	164382
#
# Disc length: 2379 seconds
#
# Revision: 6
# Processed by: cddbd v1.5.2PL0 Copyright (c) Steve Scherf et al.
# Submitted via: CDex 1.51
#
DISCID=af09490c
DTITLE=Dolly Parton - Greatest Hits
DYEAR=1982
DGENRE=Country
TTITLE0=9 To 5
TTITLE1=But You Know I Love You
TTITLE2=Heartbreak Express
TTITLE3=Old Flames (Can't Hold A Candle To You)
TTITLE4=Applejack
TTITLE5=Me And Little Andy
TTITLE6=Here You Come Again
TTITLE7=Islands In The Stream
TTITLE8=Two Doors Down
TTITLE9=It's All Wrong, But It's All Right
TTITLE10=Do I Ever Cross Your Mind
TTITLE11=I Will Always Love You
EXTD=YEAR: 1982
EXTT0=
EXTT1=
EXTT2=
EXTT3=
EXTT4=
EXTT5=
EXTT6=
EXTT7=
EXTT8=
EXTT9=
EXTT10=
EXTT11=
PLAYORDER=
